<svg width="70" height="45" viewBox="0 0 70 45" fill="none" xmlns="http://www.w3.org/2000/svg">
<path fill-rule="evenodd" clip-rule="evenodd" d="M23.5532 11.4168C23.5526 12.5626 23.5521 13.7084 23.5521 14.8542L23.5521 16.5573C23.5521 20.2225 23.552 23.8878 23.5525 27.553C23.5525 27.7346 23.5542 27.9163 23.5615 28.0977C23.6552 30.3979 24.7221 32.1398 26.7605 33.3434C27.4135 33.729 28.1468 33.6832 28.716 33.0785C29.1386 32.6294 29.4628 32.1179 29.7094 31.5628C30.0804 30.7277 29.9724 29.9086 29.061 29.4469C28.5148 29.1703 28.238 28.6766 28.2011 28.0738C28.1909 27.9067 28.1845 27.7391 28.1845 27.5718C28.1838 23.0643 28.1838 18.5568 28.1838 14.0493L28.1838 12.1907C28.1838 11.2383 28.1839 10.286 28.1841 9.33361C28.1845 6.77945 28.1848 4.2253 28.1825 1.67116C28.1816 0.728694 27.8132 0.301635 26.8534 0.0994902C26.2656 -0.0242877 25.6677 -0.028313 25.0822 0.0638076C23.7843 0.268049 23.5422 0.88153 23.5455 1.82005C23.5565 5.01896 23.5548 8.21786 23.5532 11.4168ZM4.00549 21.0939C4.01957 24.8883 6.9299 27.8605 10.6368 27.866C14.3673 27.8715 17.2991 24.8408 17.319 21.0401C17.3377 17.3745 14.2335 14.2286 10.6256 14.2392C7.12251 14.2498 3.93673 17.2715 4.00549 21.0939ZM21.3266 39.2682C21.3829 39.8882 21.672 40.3837 22.196 40.6812C23.068 41.1762 23.2229 41.9577 22.8273 42.8939C22.5688 43.5059 22.2312 44.0738 21.759 44.5434C21.2197 45.0795 20.6352 45.1414 19.9907 44.7404C18.3504 43.7204 17.2738 42.287 16.9205 40.3303C16.8302 39.8298 16.7975 39.3233 16.7983 38.8131C16.8014 36.758 16.801 34.7031 16.8006 32.6481L16.8004 30.5924V30.0397C14.0197 31.9541 11.0435 32.4118 7.89168 31.6206C5.4515 31.0077 3.54152 29.5468 2.03126 27.5142C-0.830601 23.6614 -0.700121 17.6988 2.62443 13.851C6.31971 9.57471 12.5873 9.00256 16.8302 12.0956C16.9458 11.7125 17.1728 11.4264 17.5174 11.2488C17.78 11.1136 18.0617 11.0356 18.3491 11.0051C18.9266 10.9441 19.5065 10.9305 20.0789 11.0665C20.3084 11.1208 20.53 11.2004 20.7276 11.3348C21.0561 11.559 21.257 11.8667 21.2831 12.2774C21.2947 12.4604 21.2959 12.6444 21.2959 12.8279L21.2962 19.2902V19.2903V19.2905C21.2964 25.7526 21.2966 32.2148 21.2976 38.677C21.2976 38.8741 21.3088 39.072 21.3266 39.2682ZM61.6321 19.6929C62.9286 19.693 64.2251 19.6931 65.5217 19.6928H65.5243C65.7873 19.6928 65.9181 19.6928 65.9635 19.6305C66.0084 19.5689 65.9698 19.4464 65.893 19.2026L65.893 19.2025L65.8887 19.1889C65.1945 16.9833 62.8992 14.7486 59.9168 14.663C57.0649 14.5812 54.3969 16.4404 53.5026 19.2037C53.3464 19.686 53.3501 19.6928 53.8526 19.6928C55.1491 19.6931 56.4458 19.693 57.7425 19.6929L59.6873 19.6928L61.6321 19.6929ZM60.831 10.8677C65.134 11.2593 68.3972 14.6032 69.4763 17.9191C69.8412 19.0405 70.018 20.1924 69.9986 21.3749C69.9779 22.6065 69.1125 23.51 67.8993 23.5278C66.996 23.5414 66.0926 23.539 65.1892 23.5365H65.1888H65.1887L65.1879 23.5365L65.1863 23.5365C64.7932 23.5354 64.4001 23.5344 64.0069 23.5346H61.0257L58.7343 23.5345H58.7343C57.2067 23.5344 55.6793 23.5344 54.1517 23.5346C53.5805 23.5346 53.5291 23.6096 53.8145 24.1343C54.9822 26.2805 56.7401 27.4583 59.1704 27.5075C59.8613 27.5214 60.5477 27.4684 61.2311 27.3532C62.0534 27.2146 62.7898 26.895 63.4327 26.3496C64.3113 25.6041 65.3286 25.2752 66.4628 25.3176C66.8211 25.3307 67.179 25.3676 67.5281 25.4575C68.1557 25.6189 68.5446 26.0423 68.647 26.6789C68.7816 27.5181 68.6681 28.3449 68.3036 29.1141C67.9672 29.8248 67.3678 30.1262 66.5978 29.9944C66.2345 29.9325 65.9127 30.0024 65.6157 30.2122C64.4936 31.0043 63.2385 31.4603 61.9092 31.7015C56.2534 32.7279 52.0627 29.6824 50.2348 25.5554C49.4337 23.7461 49.2767 21.8334 49.502 19.8767C49.9945 15.5958 53.206 12.5193 56.0679 11.4577C57.6121 10.8851 59.1961 10.719 60.831 10.8677ZM31.298 18.7959C31.298 18.2467 31.2993 17.6974 31.3006 17.1481C31.3038 15.8187 31.3069 14.4894 31.2916 13.1602C31.2806 12.212 31.7584 11.7897 32.4679 11.6162C33.1904 11.4397 33.9193 11.4335 34.6389 11.6341C35.4352 11.856 35.7566 12.2941 35.757 13.136C35.7573 13.8708 35.7578 14.6055 35.7582 15.3402C35.7601 18.2497 35.762 21.1592 35.7534 24.0686C35.7503 25.0816 36.108 25.9115 36.8394 26.5768C37.8204 27.4692 38.9595 27.6849 40.1516 27.1801C41.362 26.6676 42.1061 25.7078 42.1598 24.3241C42.1916 23.5035 42.1851 22.6812 42.1785 21.8591V21.8591C42.176 21.5368 42.1734 21.2144 42.1732 20.8923C42.1728 20.274 42.171 19.6557 42.1692 19.0374C42.1668 18.1868 42.1644 17.3361 42.1654 16.4855C42.1665 15.605 42.2689 14.7386 42.5755 13.9087C43.1127 12.4543 44.1074 11.4127 45.4121 10.6632C45.8927 10.3872 46.3887 10.4306 46.8062 10.789C47.5129 11.3955 47.9777 12.1803 48.1865 13.0964C48.3321 13.735 48.1261 14.2726 47.5441 14.6095C46.8703 14.9995 46.6156 15.5993 46.6195 16.3716C46.627 17.8534 46.6272 19.3352 46.6275 20.8171C46.6277 21.9483 46.6279 23.0795 46.6313 24.2107C46.6433 28.2053 43.7048 30.9879 41.0766 31.6941C36.1547 33.0169 32.3363 29.6644 31.5007 25.9823C31.3599 25.3615 31.2953 24.7313 31.2967 24.0927C31.2994 22.828 31.2989 21.5633 31.2984 20.2986C31.2982 19.7977 31.298 19.2968 31.298 18.7959Z" fill="white"/>
</svg>
